<svg xmlns="http://www.w3.org/2000/svg" viewBox="0 0 497 358.89404" width="497" height="358.89404">
  <g transform="translate(-30.404883,-30.290207)">
    <path fill="#62bdbc" d="m 117.55449,389.18425 c -3.4344,0 -5.6662,-0.61856 -7.5347,-2.0883 -1.4601,-1.14856 -3.3208,-3.37622 -4.1348,-4.95034 -0.8141,-1.57412 -1.4784,-4.34689 -1.4763,-6.1617 0,-1.81482 0.8954,-4.76216 1.9853,-6.54966 1.0898,-1.7875 2.4381,-3.25 2.9962,-3.25 0.6766,0 1.0147,-23.30491 1.0147,-69.94099 0,-38.46754 0.3375,-88.10308 0.75,-88.30121 0.4125,-0.19813 3.6046,-0.18261 7.0935,0.0345 l 6.3435,0.39474 -0.5912,87.3725 c -0.4636,68.51085 -0.5665,69.38572 1.3962,70.43611 1.093,0.58499 2.7171,2.47485 3.6091,4.19968 1.1042,2.13542 1.458,4.58786 1.1088,7.68601 -0.4048,3.59152 -1.2677,5.24176 -4.0967,7.83429 -3.0271,2.77415 -4.3418,3.28435 -8.4636,3.28435 z m 135.3504,-35.10241 c -4.4,-0.0372 -10.25,-0.62719 -13,-1.31103 -2.75,-0.68385 -7.7037,-2.34935 -11.0083,-3.70112 -3.3046,-1.35177 -8.698,-4.24149 -11.9854,-6.4216 -3.2873,-2.18012 -8.4666,-6.51467 -11.5095,-9.63234 -3.0429,-3.11767 -7.2239,-8.51767 -9.2911,-12 -2.0673,-3.48233 -4.6949,-9.2565 -5.8392,-12.8315 -1.2271,-3.83349 -2.2778,-10.39722 -2.5613,-16 -0.2677,-5.29159 0.033,-12.15795 0.6782,-15.5 0.6374,-3.3 1.2393,-6.96953 1.3377,-8.15451 0.098,-1.18498 0.484,-1.96595 0.8569,-1.73548 0.3729,0.23046 0.9827,-0.60001 1.355,-1.84549 0.3724,-1.24549 2.6499,-5.46793 5.0612,-9.38319 2.4113,-3.91527 7.5345,-10.09053 11.3849,-13.7228 5.0931,-4.80459 9.524,-7.81477 16.2608,-11.04711 5.0931,-2.44364 11.6448,-4.93088 14.5594,-5.5272 2.9145,-0.59633 9.5996,-1.08422 14.8556,-1.08422 5.487,0 12.1729,0.67654 15.7008,1.58877 3.3794,0.87383 9.2943,3.1626 13.1443,5.08617 3.85,1.92356 9.3371,5.29369 12.1934,7.48918 2.8564,2.19548 6.7122,5.86921 8.5685,8.16383 1.8562,2.29463 4.8558,6.34946 6.6656,9.01075 1.8099,2.66129 4.3657,7.58189 5.6797,10.93466 1.3139,3.35276 2.9347,9.87086 3.6018,14.48466 1.026,7.09574 0.9654,9.84358 -0.3929,17.82768 -1.0283,6.04446 -2.845,12.04181 -5.0517,16.67663 -1.8952,3.98071 -5.7859,10.16267 -8.646,13.73767 -2.8601,3.575 -7.7692,8.46605 -10.9092,10.86901 -3.1401,2.40296 -8.8721,5.89313 -12.7379,7.75593 -3.8657,1.8628 -10.1657,4.05142 -14,4.86362 -3.8342,0.81219 -10.5713,1.44625 -14.9713,1.40903 z m -0.5,-11.98465 c 1.375,0.0396 5.425,-0.38193 9,-0.93666 3.9272,-0.60939 9.8645,-2.65333 15,-5.16388 5.8593,-2.86434 10.291,-5.94578 14.2648,-9.91863 4.0223,-4.0213 6.9682,-8.27675 9.7462,-14.07857 2.7841,-5.81471 4.32,-10.72473 5.1074,-16.32791 0.9331,-6.63932 0.8549,-9.32379 -0.4558,-15.66199 -0.8701,-4.20711 -2.9351,-10.50139 -4.5891,-13.9873 -1.6539,-3.4859 -5.1471,-8.77498 -7.7626,-11.75351 -2.6155,-2.97853 -7.3823,-7.11326 -10.5928,-9.18829 -3.2104,-2.07503 -8.6229,-4.6876 -12.0276,-5.80571 -3.4048,-1.1181 -9.1155,-2.31108 -12.6905,-2.65106 -4.2793,-0.40696 -8.9875,-0.0913 -13.7812,0.92393 -4.0047,0.84813 -10.1463,2.95255 -13.6481,4.67648 -3.5018,1.72393 -8.8292,5.32899 -11.8386,8.01124 -3.7701,3.36019 -6.7258,7.29818 -9.5044,12.66287 -2.2179,4.28232 -4.7515,10.23022 -5.6302,13.21755 -0.8786,2.98732 -1.5975,8.2134 -1.5975,11.61351 0,3.4001 0.4495,8.60593 0.9988,11.5685 0.5494,2.96257 2.6449,8.76149 4.6568,12.88649 2.578,5.28559 5.607,9.41914 10.2588,14 3.9267,3.86673 9.231,7.82341 13.0932,9.76675 3.5708,1.79671 9.4174,3.89844 12.9924,4.6705 3.575,0.77206 7.625,1.43612 9,1.47569 z m -82,10.08706 h -37 v -63 -63 h 6.5 6.5 v 57 57 h 30.5 30.5 v 6 6 z m 166.491,0 h -6.491 v -63 -63 h 7.2573 7.2573 l 2.9202,4.75 c 1.6061,2.6125 6.6026,10.825 11.1034,18.25 4.5007,7.425 13.0355,21.375 18.9661,31 5.9306,9.625 15.1058,24.63011 20.3894,33.34469 l 9.6063,15.84469 0.5,-51.84469 c 0.275,-28.51458 0.8375,-51.73219 1.25,-51.59469 0.4125,0.1375 3.3655,0.25 6.5622,0.25 h 5.8122 l 0.2347,63 0.2348,63 h -7.5594 -7.5593 l -3.6819,-5.75 c -2.025,-3.1625 -8.6091,-13.85 -14.6314,-23.75 -6.0223,-9.9 -15.0828,-24.75 -20.1345,-33 -5.0516,-8.25 -12.7494,-20.84204 -17.1061,-27.98231 l -7.9213,-12.9823 -0.259,51.7323 -0.259,51.73231 z m 101.009,0 h -6.5 v -63.61749 -63.61749 l 7.75,0.71771 c 4.2625,0.39475 7.7962,0.78512 7.8526,0.86749 0.056,0.0824 2.8013,4.19978 6.0995,9.14978 3.2983,4.95 13.8945,21.375 23.5471,36.5 9.6526,15.125 19.5078,30.53192 21.9005,34.2376 2.3927,3.70568 8.8503,13.75358 14.3503,22.32867 5.5,8.57509 11.0125,17.15066 12.25,19.05681 1.2375,1.90615 2.25,3.67075 2.25,3.92132 0,0.25058 -3.291,0.4556 -7.3134,0.4556 h -7.3135 l -6.5097,-10.25 c -3.5804,-5.6375 -8.0518,-12.82474 -9.9366,-15.97164 l -3.4268,-5.72164 -24.25,-0.0284 -24.25,-0.0284 v 16 16 z m 13.7554,-43.55006 c 3.9846,-0.0275 12.9937,-0.14003 20.0203,-0.25 l 12.7757,-0.19994 -1.6462,-3.25 c -0.9054,-1.7875 -5.7143,-9.55 -10.6863,-17.25 -4.9721,-7.7 -13.2428,-20.45349 -18.3795,-28.34108 l -9.3394,-14.34108 0.01,31.84108 0.01,31.84108 z m -5.7554,-49.44994 c -0.275,0 -0.5,-0.225 -0.5,-0.5 0,-0.275 0.225,-0.5 0.5,-0.5 0.275,0 0.5,0.225 0.5,0.5 0,0.275 -0.225,0.5 -0.5,0.5 z m -327.6928,-47.05588 c -2.9189,-0.0307 -7.3322,-0.87535 -9.8072,-1.87694 -2.475,-1.00159 -6.3816,-3.45598 -8.681405,-5.45421 -2.2997,-1.99822 -5.4497,-6.2161 -7,-9.37305 l -2.8186,-5.73992 -0.3244,-31.75 -0.3244,-31.75 h 4.9674 c 3.0729,0 5.1351,0.47673 5.4069,1.25 0.2417,0.6875 0.542205,13.85 0.667805,29.25 0.1257,15.4 0.6629,29.66703 1.1939,31.70453 0.531,2.03749 2.1322,5.09115 3.5582,6.78591 1.4261,1.69477 4.0018,3.8129 5.7237,4.70698 1.8136,0.94162 5.5288,1.62776 8.8299,1.63075 4.4692,0.004 6.5469,-0.55601 9.6288,-2.59552 2.4233,-1.60362 4.839,-4.44707 6.3011,-7.41667 2.3105,-4.69293 2.3795,-5.58893 2.6984,-35.06598 l 0.3272,-30.25 h 4.9741 4.974 l -0.3013,32.25 -0.3013,32.25 -3.4687,6.39904 c -2.2972,4.23779 -4.9992,7.51102 -8,9.69141 -2.4922,1.8108 -6.418,3.76874 -8.7241,4.35096 -2.306,0.58222 -6.581,1.03344 -9.5,1.00271 z m 81.1529,-0.40889 c -5.8465,0.32309 -10.1517,-0.008 -13.9358,-1.07114 -3.0117,-0.84626 -7.5103,-2.73097 -9.997,-4.18825 -2.4866,-1.45727 -6.5475,-4.73325 -9.0242,-7.27995 -2.4767,-2.5467 -5.694,-6.85011 -7.1496,-9.56313 -1.4556,-2.71302 -3.1932,-7.42425 -3.8614,-10.46939 -0.6681,-3.04515 -1.0522,-9.35582 -0.8534,-14.02373 0.3056,-7.17841 0.8783,-9.5367 3.7137,-15.29397 1.936,-3.93116 5.5919,-9.04645 8.6534,-12.10798 2.9156,-2.9156 7.8802,-6.52121 11.0325,-8.01248 3.1523,-1.49126 8.5957,-3.18602 12.0966,-3.76613 4.4667,-0.74016 8.267,-0.73959 12.7419,0.002 3.5072,0.58116 8.9982,2.33518 12.2022,3.89782 3.204,1.56264 8.1333,5.09117 10.954,7.84117 3.1018,3.02411 6.4797,7.76624 8.5478,12 3.3145,6.78555 3.4192,7.36827 3.4192,19.02102 0,11.67424 -0.099,12.22236 -3.4353,19 -1.9589,3.97951 -5.6121,9.15569 -8.5,12.0436 -2.7856,2.78555 -8.0076,6.51328 -11.6046,8.28386 -5.3501,2.63353 -8.0791,3.30428 -15,3.68675 z m -3.7593,-9.63569 c 0.9354,0.0553 4.0854,-0.39422 7,-0.99882 2.9146,-0.6046 7.15,-2.1624 9.4121,-3.46178 2.262,-1.29937 5.5218,-3.96721 7.2438,-5.92853 1.7221,-1.96131 4.0207,-5.30996 5.1081,-7.44144 1.0874,-2.13148 2.3934,-6.50647 2.9022,-9.7222 0.5704,-3.60524 0.5657,-8.09751 -0.012,-11.71754 -0.5155,-3.22892 -1.8214,-7.60391 -2.9021,-9.7222 -1.0807,-2.11828 -3.3738,-5.45614 -5.0959,-7.41745 -1.722,-1.96132 -5.049,-4.69005 -7.3932,-6.06385 -2.3442,-1.37381 -6.8064,-2.91191 -9.916,-3.41801 -3.6282,-0.59051 -7.6396,-0.55306 -11.1969,0.10453 -3.0487,0.56358 -7.7583,2.38775 -10.4659,4.05371 -2.7075,1.66595 -6.2892,5.01511 -7.9593,7.44257 -1.6702,2.42746 -3.7586,6.0961 -4.6409,8.15252 -0.8823,2.05642 -1.9371,5.76395 -2.3439,8.23895 -0.4068,2.475 -0.2966,6.975 0.2449,10 0.5414,3.025 2.2669,7.75 3.8342,10.5 1.5674,2.75 4.3179,6.4986 6.1122,8.33022 1.7943,1.83162 4.9666,4.1997 7.0497,5.2624 2.083,1.0627 5.4819,2.33139 7.5529,2.81932 2.071,0.48794 4.5309,0.93236 5.4663,0.9876 z m 149,10.04668 c -3.1354,-0.0296 -8.1758,-0.84951 -11.2008,-1.82206 -3.025,-0.97256 -6.625,-2.36347 -8,-3.09092 -1.375,-0.72745 -4.2394,-2.68648 -6.3654,-4.3534 -2.126,-1.66692 -5.5808,-5.20087 -7.6774,-7.85322 -2.0965,-2.65235 -4.7969,-7.41089 -6.0007,-10.57454 -1.2796,-3.36273 -2.4774,-9.49059 -2.8835,-14.75208 -0.3821,-4.95 -0.4205,-9.225 -0.085,-9.5 0.3353,-0.275 1.1449,-2.33455 1.7992,-4.57677 0.6542,-2.24223 2.9151,-6.74223 5.0242,-10 2.1091,-3.25778 5.4715,-7.35629 7.4721,-9.10779 2.0005,-1.75151 5.5676,-4.31561 7.927,-5.698 2.3594,-1.38239 6.9718,-3.21184 10.2498,-4.06544 3.2781,-0.8536 8.2281,-1.54666 11,-1.54014 2.772,0.007 7.3998,0.6401 10.284,1.40793 2.8842,0.76783 7.3842,2.42772 10,3.68865 2.6158,1.26092 7.0773,4.60684 9.9144,7.43537 2.9262,2.91725 6.7993,8.34802 8.9499,12.54948 3.6614,7.15266 3.7931,7.76684 3.8415,17.90671 0.048,10.10094 -0.091,10.79569 -3.665,18.28033 -2.4304,5.08985 -5.5716,9.63679 -9.0836,13.14885 -2.9527,2.95268 -7.5809,6.48306 -10.2849,7.84529 -2.704,1.36222 -7.301,2.98274 -10.2156,3.60115 -2.9146,0.61841 -7.8646,1.10018 -11,1.0706 z m 3.7992,-10.54615 c 3.025,-0.3024 7.82,-1.59674 10.6554,-2.87631 2.8355,-1.27956 6.9843,-4.21104 9.2196,-6.51439 2.2353,-2.30335 5.2784,-6.73524 6.7624,-9.84864 2.1806,-4.57496 2.7013,-7.10078 2.7146,-13.16849 0.013,-6.07297 -0.5041,-8.64485 -2.7076,-13.45781 -1.4982,-3.27253 -3.8463,-7.4215 -5.2181,-9.21995 -1.3717,-1.79844 -4.553,-4.47655 -7.0696,-5.95134 -2.5165,-1.4748 -7.2785,-3.3059 -10.5821,-4.06911 -4.8004,-1.109 -7.138,-1.15397 -11.6406,-0.22393 -3.0987,0.64006 -7.721,2.21813 -10.2718,3.50683 -2.5508,1.2887 -6.2597,4.23788 -8.242,6.55373 -1.9823,2.31585 -4.5784,6.72135 -5.7691,9.78999 -1.4845,3.82551 -2.1669,7.79677 -2.171,12.63347 0,5.55133 0.5698,8.31183 2.6968,12.95781 1.4865,3.24702 3.8251,7.37513 5.1968,9.17358 1.3718,1.79844 4.5846,4.49498 7.1396,5.99232 2.555,1.49733 6.7022,3.29609 9.2161,3.99724 2.6404,0.73646 6.8933,1.04263 10.0706,0.725 z m -313.000007,9.59993 h -5 v -42.5 -42.5 h 5 5 v 18.94098 c 0,10.41754 0.4079,19.19304 0.9064,19.50112 0.4984,0.30808 7.1359,-7.12218 14.75,-16.51169 7.614,-9.38951 14.7605,-18.16502 15.8812,-19.50112 1.7203,-2.05109 2.9269,-2.42929 7.75,-2.42929 3.1418,0 5.7124,0.36244 5.7124,0.80542 0,0.44299 -2.3876,3.70549 -5.3058,7.25 -2.9182,3.54452 -10.3836,12.68146 -16.5898,20.30433 l -11.2839,13.85975 2.9978,3.14025 c 1.6488,1.72713 5.6267,6.34334 8.8398,10.25823 3.2131,3.91489 9.9865,11.84537 15.052,17.62328 5.0655,5.77791 8.928002,10.78732 8.583302,11.13201 -0.3447,0.3447 -3.368502,0.62673 -6.719502,0.62673 -4.8324,0 -6.3304,-0.3805 -7.2415,-1.83939 -0.6318,-1.01166 -6.7397,-8.32416 -13.573,-16.25 -6.8334,-7.92584 -13.0971,-14.96374 -13.9192,-15.63977 -1.2345,-1.01508 -1.8733,-0.71734 -3.6675,1.7095 -1.9959,2.69954 -2.1727,4.1219 -2.1727,17.47916 v 14.5405 z m 214.489207,0 h -5.5109 l 0.2609,-42.25 0.2608,-42.25 h 17 c 11.8442,0 18.177,0.4157 20.8807,1.37069 2.1344,0.75387 5.6923,3.00387 7.9063,5 2.2141,1.99612 4.8454,5.42931 5.8474,7.62931 1.0129,2.22411 1.8315,6.34853 1.8437,9.28983 0.014,3.31664 -0.7085,6.72162 -1.9363,9.12822 -1.077,2.1111 -4.0653,5.69318 -6.6408,7.96016 -2.5754,2.26698 -5.2942,4.12179 -6.0418,4.12179 -0.7475,0 -1.3592,0.46123 -1.3592,1.02496 0,0.56373 1.5328,4.05123 3.4062,7.75 1.8734,3.69877 6.3734,11.87702 10,18.17389 3.6266,6.29688 6.5938,11.80938 6.5938,12.25 0,0.44063 -2.5875,0.79247 -5.75,0.78187 l -5.75,-0.0193 -7.4092,-13.73073 c -4.075,-7.5519 -8.7926,-16.09322 -10.4836,-18.98072 l -3.0744,-5.25 h -7.2664 -7.2664 v 19 19 z m 16.7608,-48.00374 c 9.3935,-0.003 11.7783,-0.32587 14.4515,-1.95578 1.7608,-1.07362 3.8513,-3.20944 4.6455,-4.74626 0.7942,-1.53682 1.5793,-3.69422 1.7446,-4.79422 0.1652,-1.1 -0.02,-3.61554 -0.4109,-5.59007 -0.3912,-1.97454 -1.7169,-4.5346 -2.946,-5.68903 -1.2291,-1.15443 -4.2597,-2.5654 -6.7347,-3.13549 -2.475,-0.57009 -8.4375,-1.04752 -13.25,-1.06097 l -8.75,-0.0244 v 13.5 13.5 z m 36.25,-7.99626 c -0.275,0 -0.5,-0.225 -0.5,-0.5 0,-0.275 0.225,-0.5 0.5,-0.5 0.275,0 0.5,0.225 0.5,0.5 0,0.275 -0.225,0.5 -0.5,0.5 z m -39.3959,-37.41072 c -6.6104,0.33842 -9.8959,0.0112 -14.179,-1.41201 -3.0662,-1.01887 -7.4537,-2.90843 -9.75,-4.19903 -2.2963,-1.29059 -4.1619,-2.82616 -4.1458,-3.41239 0.016,-0.58622 1.3419,-2.50828 2.9461,-4.27124 l 2.9167,-3.20539 6.1638,3.17891 c 4.6777,2.41246 7.7931,3.27096 12.9215,3.56075 5.2094,0.29435 7.7999,-0.0791 11.3059,-1.62998 2.5014,-1.1065 5.317,-3.18541 6.2569,-4.61979 0.9398,-1.43439 1.9023,-4.513978 2.1388,-6.843538 0.2883,-2.83829 -0.1652,-5.38523 -1.3744,-7.7205 -1.0018,-1.93455 -3.5841,-4.48492 -5.8046,-5.7327 -2.2,-1.23627 -8.275,-3.5865 -13.5,-5.22273 -5.225,-1.63623 -11.5726,-4.29298 -14.1059,-5.90389 -3.0732,-1.95429 -5.3193,-4.40277 -6.75,-7.35806 -1.4265,-2.94693 -2.1441,-6.34472 -2.1441,-10.15326 0,-3.72257 0.6892,-7.075028 1.971,-9.587548 1.084,-2.12489 3.604,-5.2095 5.5999,-6.85469 1.9959,-1.64519 6.1175,-3.774 9.1591,-4.7307 4.1126,-1.29357 7.4834,-1.60171 13.1501,-1.20209 4.191,0.29555 10.2384,1.52477 13.4388,2.73159 3.2003,1.20682 6.0566,2.81387 6.3472,3.57123 0.2906,0.75735 -0.4691,2.99096 -1.6882,4.96357 -1.6042,2.59561 -2.6672,3.39618 -3.8472,2.8975 -0.8969,-0.37899 -3.8807,-1.57856 -6.6307,-2.66571 -3.8337,-1.51556 -6.5556,-1.86812 -11.6691,-1.51142 -4.0501,0.28253 -7.9771,1.22721 -10,2.40566 -2.2315,1.3 -3.7665,3.24376 -4.6507,5.889308 -1.0069,3.01242 -1.0604,4.82543 -0.2259,7.64522 0.6016,2.03299 2.1334,4.51403 3.4039,5.51341 1.2705,0.99938 8.2862,3.77124 15.5904,6.15967 10.4418,3.41442 14.1443,5.12149 17.3222,7.98659 2.223,2.00419 4.8616,5.44398 5.8636,7.64398 1.0019,2.2 1.8316,5.83082 1.8437,8.06849 0.012,2.23768 -0.6536,6.34339 -1.4793,9.123808 -1.0858,3.65623 -2.763,6.21835 -6.0604,9.25776 -2.5075,2.31135 -6.1726,4.87661 -8.1447,5.70058 -1.972,0.82398 -7.4573,1.69636 -12.1896,1.93864 z m -172.854105,-0.78702 -5.250002,0.30225 V 74.736512 32.184254 h 5.824702 5.8247 l 15.274705,25.749998 c 8.4011,14.1625 17.1424,28.56817 19.4253,32.01261 l 4.1506,6.26262 0.2639,-32.64122 0.2638,-32.641208 3.7362,0.61759 c 2.0549,0.33968 4.2986,0.62255 4.9861,0.6286 0.9803,0.009 1.25,9.18354 1.25,42.511008 v 42.499998 h -5.3395 c -4.5657,0 -5.4886,-0.32607 -6.3684,-2.25 -0.5659,-1.2375 -7.7693,-13.5 -16.0075,-27.249998 -8.2382,-13.75 -16.5021,-27.42278 -18.3643,-30.38395 -3.365105,-5.35107 -3.389005,-5.36633 -3.910705,-2.5 -0.2888,1.58617 -0.5059,12.55895 -0.4826,24.38395 0.023,11.825 0.3482,23.524998 0.722,25.999998 0.5024,3.3274 0.4512,3.71827 -0.1968,1.5 -0.6958,-2.38215 -0.8429,-1.66133 -0.7142,3.5 l 0.162,6.5 z m 64.083205,0.19774 c -2.9332,0 -5.3332,-0.37451 -5.3332,-0.83223 0,-0.45773 8.9611,-15.87023 19.9135,-34.249998 10.9525,-18.37978 22.2454,-37.130268 25.0955,-41.667768 l 5.182,-8.25 h 6.4045 6.4045 v 42.499998 42.499998 h -5 -5 v -11.5 -11.499998 h -14.2683 -14.2683 l -6.8985,11.499998 -6.8986,11.5 z m 36.1412,-31.999998 h 11.5256 l -0.01,-19.75 -0.01,-19.749998 -6.3147,10.999998 c -3.473,6.05 -7.9064,13.475 -9.8518,16.5 -1.9455,3.025 -4.288,6.9625 -5.2057,8.75 l -1.6684,3.25 z m 33.9691,31.999998 h -5.5781 l 0.3173,-42.749998 0.3173,-42.749998 5,0.0283 5,0.0283 0.2608,42.721668 0.2607,42.721678 z m -10.9435,-14 c -0.275,0 -0.5,-0.225 -0.5,-0.5 0,-0.275 0.225,-0.5 0.5,-0.5 0.275,0 0.5,0.225 0.5,0.5 0,0.275 -0.225,0.5 -0.5,0.5 z m 0.1667,-2.33334 c -0.3667,0.36667 -0.6667,0.0667 -0.6667,-0.66666 0,-0.733338 0.3,-1.033338 0.6667,-0.666668 0.3667,0.36667 0.3667,0.966668 0,1.333328 z M 97.009085,96.913412 c -0.3323,0.33229 -0.5686,-0.25833 -0.5252,-1.3125 0.048,-1.16494 0.2849,-1.4019 0.6041,-0.60416 0.2889,0.72187 0.2534,1.58437 -0.079,1.91666 z M 299.90489,73.184252 c -4.675,0 -8.5351,-0.1125 -8.5781,-0.25 -0.043,-0.1375 -0.1554,-2.05 -0.25,-4.25 l -0.1719,-4 8.75,-0.28894 8.75,-0.28893 v 4.53893 4.53894 z"/>
  </g>
</svg>
